<svg id="レイヤー_1" data-name="レイヤー 1" xmlns="http://www.w3.org/2000/svg" viewBox="0 0 996.15 270.11">
<defs><style>.cls-1{fill:#black;}</style></defs>
<path class="cls-1" d="M1000,189.24a4.91,4.91,0,0,1-3.89,1.87c-4.91.18-9.82.34-14.73.68-5.54.39-11.07,1-16.61,1.49-5.78.55-11.56,1.11-17.33,1.72-4.34.46-8.67.93-13,1.51-7.29,1-14.58,2-21.84,3.17-7.72,1.27-15.36,3-23.1,4.09a23.09,23.09,0,0,0-10.9,5c-.38.29-.83.7-1.23.68-.81,0-1.93-.07-2.31-.57a2.61,2.61,0,0,1,.13-2.34,41.1,41.1,0,0,1,3.13-4.07c-4.76.95-9,1.88-13.17,2.59-6.78,1.15-13.59,2.15-20.38,3.25a9.89,9.89,0,0,0-2,.63c-1.5.6-2.94,1.63-4.47,1.79-2.49.26-3.35,1.73-4,3.77-1.78,5.25-3.66,10.48-5.49,15.71a1.31,1.31,0,0,0,.19,1.18,5.46,5.46,0,0,0,.73-1.17,3.71,3.71,0,0,1,2.43-2.51c3.64-1.42,5.53-4.85,8.11-7.48,2-2,3.82-4.28,6-6.17.88-.77,2.36-.86,3.57-1.26a13.41,13.41,0,0,1,1,3.67c0,.88-.82,1.81-1.4,2.63-1.25,1.74-2.59,3.43-4.27,5.64a20.57,20.57,0,0,0,3.51,0c8.37-1.69,16.72-3.48,25.09-5.16,4.74-1,9.5-1.78,14.26-2.63,1.46-.27,2.92-.5,4.4-.64a14.58,14.58,0,0,1,2.38.17l.32.57c-.69.82-1.21,2-2.09,2.39-3.81,1.66-7.65,3.27-11.6,4.54-2.42.78-5.07.83-7.58,1.38-5.21,1.14-10.41,2.4-15.6,3.63-2.71.65-5.58,1-8,2.13-2.26,1.06-4.76.83-6.72,1.72-1.64.75-3.3,1.76-5,1.86-3.33.19-5.15,2.35-7.17,4.45-8.28,8.61-15,18.36-21.12,28.55-.9,1.49-1.93,2.89-2.87,4.35-1.67,2.58-4,3.36-7,2.87-1.16-.19-1.82-.64-1.41-1.89a37.71,37.71,0,0,1,1.74-4.84,59.08,59.08,0,0,1,4-7c1.26-1.87,3-3.44,4.34-5.22,1-1.24,1.71-2.64,2.61-3.93,2.74-3.92,5.79-7.66,8.17-11.79,1.39-2.43,1.74-5.47,2.56-8.23a6.79,6.79,0,0,1,.55-1.76,39.38,39.38,0,0,0,6.49-17.09,35.7,35.7,0,0,1,1-4.7,2.53,2.53,0,0,1,3-2l.16,0a2.18,2.18,0,0,0,1.72-.46c2.12-2.85,5.27-3.35,8.42-3.81s6.49-.48,9.62-1.21c9.82-2.29,20-2.89,29.63-6.06,3.27-1.08,6.84-1.26,10.13-2.29,3.94-1.23,8-1.58,12-2.56,3-.74,6.42-.71,9-3.08.73-.67,2.33-.69,3.48-.56A2.54,2.54,0,0,1,920,189h0a4.14,4.14,0,0,1-1.91,2.68c-1.33.81-3,1.13-4.41,1.83,2.59-.27,5.2-.44,7.77-.83,7.15-1.07,14.28-2.32,21.44-3.3,3.67-.51,7.41-.51,11.11-.88,6-.59,12-1.55,18-1.88,7.54-.41,15.1-.45,22.65-.4,1.81,0,3.61,1,5.42,1.58Z" transform="translate(-3.94 -13.15)"/><path class="cls-1" d="M172.3,95.66a41.76,41.76,0,0,0-3-17.36c-3.77-9.09-9.67-16.12-19.41-19.09a28.14,28.14,0,0,0-8.1-1.27c-25.94-.09-51.87,0-77.81-.07-7.39,0-13,3.18-17.17,9.12A31.37,31.37,0,0,0,41,85.35v73.22c0,9.85,4.94,16.86,14.3,19.81a99.11,99.11,0,0,0,23.86,4.76,11.34,11.34,0,0,1,1.77.27v33.4c-2.45.16-4.89.51-7.31.46-8.94-.16-17.89-.14-26.8-.78-8.15-.59-16.32-1.62-24.16-4.21C12.76,209,7.3,201.8,6.18,191.7c-.89-8-1-16.15-1.13-24.23C4.61,132.76,4.32,98,3.94,63.32,3.82,52.34,7.61,42.69,14,34c6-8.08,14.41-12,24.11-13.49a78.58,78.58,0,0,1,11.47-.68q57.29-.07,114.55,0a46.23,46.23,0,0,1,30.48,10.9,29.3,29.3,0,0,1,11,22.51c.26,11,.3,21.93.36,32.89,0,2.75-.26,5.51-.35,8.26,0,1-.25,1.54-1.43,1.54-10.44,0-20.89,0-31.33-.06A2.92,2.92,0,0,1,172.3,95.66Z" transform="translate(-3.94 -13.15)"/><path class="cls-1" d="M72.36,272.75V237.27h4.48c10.21.27,20.39.19,30.37-2.33a28.4,28.4,0,0,0,10.75-5.6c4-3.22,5.44-7.6,5.45-12.56v-56.3a15.28,15.28,0,0,0-6.82-13.13c-5.66-4.06-12-5.74-18.89-5.95a127.35,127.35,0,0,0-24.21,1.37,6.86,6.86,0,0,1-1.11,0V105.05c1.75-.12,3.41-.32,5.07-.34,13.93-.15,27.85-.4,41.78-.35,9.8,0,19.46,1.12,28.55,5.29,10.22,4.68,15.4,12.56,15.41,23.75,0,23,.13,45.93-.11,68.9-.13,12.34-.41,24.71-1.53,37-1,10.61-5.17,20.16-13.64,27.23a26.45,26.45,0,0,1-17.37,6.24H74.71Z" transform="translate(-3.94 -13.15)"/><path class="cls-1" d="M541.28,147.44c1.47-4.48,2.86-8.72,4.26-12.95Q565.28,74.83,585,15.18a2.39,2.39,0,0,1,2.72-2c6.9.1,13.81.07,20.71,0a1.94,1.94,0,0,1,2.24,1.59h0q21.33,64.77,42.8,129.5c.33,1,.65,2,1,3.16H631.23c-1.2,0-1.31-.75-1.58-1.53q-5.4-15.56-10.79-31.12L597.3,52.57c-.12-.33-.25-.65-.5-1.29-.29.71-.49,1.14-.64,1.58q-16,46.26-32,92.55c-.53,1.54-1.17,2.12-2.87,2.08-5.94-.13-11.88-.05-17.83-.05Z" transform="translate(-3.94 -13.15)"/><path class="cls-1" d="M878.07,149.65c1.33-4.08,2.58-7.92,3.85-11.76q20-60.33,39.88-120.67a2.28,2.28,0,0,1,2.63-1.85h0c7.44.06,14.87,0,22.41,0q22.21,67.1,44.42,134.24c-8,0-15.73,0-23.47-.06-.46,0-1.14-.85-1.34-1.43q-6-17.07-11.88-34.16L934.08,54.8c-.12-.34-.27-.66-.55-1.36-1,2.73-1.83,5.15-2.67,7.57l-30,86.81a2.29,2.29,0,0,1-2.63,1.87c-6.06-.1-12.12,0-18.18,0Z" transform="translate(-3.94 -13.15)"/><path class="cls-1" d="M776.82,131.81h66.5v15.5H756.84v-1.86c0-4.74-.06-9.48,0-14.21a5.69,5.69,0,0,1,.92-3Q790,81.72,822.22,35.19l1.35-2H754.8V15.54h91a90.28,90.28,0,0,0,.07,9.87c.6,5.45-1.29,9.74-4.43,14.16-21.18,29.93-42.11,60-63.13,90.07C777.87,130.22,777.48,130.82,776.82,131.81Z" transform="translate(-3.94 -13.15)"/><path class="cls-1" d="M707.43,266.54a75.24,75.24,0,0,1-9,2.33,64,64,0,0,1-11.57.53,11.72,11.72,0,0,1-7.66-4c-2.33-2.4-4.85-4.82-6.43-7.69s-2.15-6.36-3.1-9.59a2.25,2.25,0,0,1,0-1.58c1.85-2.13,1.06-5.25,2.88-7.37.78-.92,1.21-2.19,2.1-3,2.62-2.26,5.93-2.44,9.2-2.64,4.71-.28,9.42-.57,14.12-.93a5.51,5.51,0,0,0,2-.75q5.5-2.94,11-5.95a5,5,0,0,0,1.25-1c1.72-1.84,3.55-3.6,5.07-5.59,1.08-1.4,1.55-3.25,2.59-4.69,2.83-3.91,4.24-8.46,5.57-12.94,1.23-4.14-.1-8.16-3-11.52l-1.33-1.54a29.68,29.68,0,0,0-11.84,4.82c-7,4.54-12.63,10.41-18.36,16.29-1.42,1.46-2.91,2.85-4.3,4.35-.86.92-.81,1.84.44,2.44a1.36,1.36,0,0,1,1,1.67,1.39,1.39,0,0,1-.42.67,36,36,0,0,1-2.86,2.66,54.91,54.91,0,0,0-3.89,3.89c-1.36,1.6-2,3.79-4.36,4.54-.59.19-.7,1.58-1.25,2.22-1.11,1.26-2.35,2.4-3.57,3.56-2.53,2.38-5.09,4.74-7.62,7.13-.39.36-.93.79-1,1.24-.39,3.39-3.14,5-5.26,7a1.06,1.06,0,0,0-.37.54c-.31,2.51-2.11,4.06-3.55,5.9-2.61,3.33-5,6.8-7.56,10.19-.78,1-1.69,2-2.5,3a5.5,5.5,0,0,0-1.08,1.76c-.57,2.21-4.91,4.59-7,3.67a1.89,1.89,0,0,1-.68-1.28,8.61,8.61,0,0,1,1.79-6.39c1.63-2.37,3.24-4.74,4.82-7.13a9.34,9.34,0,0,0,.63-1.45c-.2,0-.26-.05-.28,0-3.68,3.14-8.08,4.83-12.59,6.35-1.41.47-2.6,1.54-3.94,2.24s-3,1.55-4.58,2.22-3.29,1.32-5,1.87c-3.11,1-6.25,2-9.37,2.93-.5.15-1.23.18-1.44.53-1,1.7-2.77,1.89-4.47,2.26-6.29,1.39-12.54,3.05-18.88,4.18a56.26,56.26,0,0,1-23-.93c-1-.24-1.83-1.29-2.82-1.82-6.34-3.44-9.13-9.42-10.54-15.91-.85-3.89-.27-8.1-.24-12.16a13.42,13.42,0,0,1,.45-4.09c1.3-4,2.87-8,4.2-12a74.71,74.71,0,0,1,13.66-24.83,79.78,79.78,0,0,1,6.25-7.12c1.8-1.69,3.88-3.07,5-5.38a1.22,1.22,0,0,1,.37-.38C580.89,193.46,586,188.2,592,184a152.28,152.28,0,0,1,13.54-8.15c3.23-1.78,6.84-2.9,10-4.81a43.55,43.55,0,0,1,4.53-2,23.16,23.16,0,0,1,5.51-1.37,33.7,33.7,0,0,1,5-.65,21.62,21.62,0,0,1,4.25.39c.81.13,1.55.7,2.35.82,4,.6,5.2,3.48,5.9,6.91a26,26,0,0,0,1.44,3.8,2.67,2.67,0,0,1,.28,1q-.48,5.79-1,11.6a1.62,1.62,0,0,1-.29.82q-3.84,5.41-7.69,10.81a46,46,0,0,1-4,5.33c-2.12,2.18-4.55,4.07-6.84,6.1a8.23,8.23,0,0,0-.76,1c-1.64,2.11-5.17,3.29-7.62,2.35a2.4,2.4,0,0,1-1.16-1.84,4.21,4.21,0,0,1,2.77-3.69,10.56,10.56,0,0,0,4.15-3.55,21.52,21.52,0,0,1,3.8-4.06,34.54,34.54,0,0,0,7.25-8.5c1.71-2.64,3.64-5.08,5.38-7.68a6,6,0,0,0,.59-2.94,40.25,40.25,0,0,0,0-5.38,6.23,6.23,0,0,0-3.8-5.65,32.75,32.75,0,0,0-5.81-2.32c-1.36-.31-2.92.19-4.38.37-2.14.25-4.35.33-5.78,2.35a1.39,1.39,0,0,1-.74.47c-1.82.4-3.65.77-5.48,1.14a1.06,1.06,0,0,0-.35.09l-5,3.13c-2.46,1.55-4.95,3-7.36,4.66-1.81,1.21-3.57,2.52-5.28,3.88-3.13,2.49-6.17,5.11-9.31,7.58A110.2,110.2,0,0,0,564.7,217.6a21.94,21.94,0,0,0-1,2,8,8,0,0,1-1,1.32c-.14.16-.55.14-.61.29-1,2.48-3.46,4-3.94,6.86a14.75,14.75,0,0,1-2.75,6.78c-1.51,1.84-1.32,4-2.32,5.78-2.92,5.07-2.71,10.83-3.68,16.26-.69,3.84,1.2,7.83,3.35,11.29a26.43,26.43,0,0,0,8.75,8.14c.6.38,1.52.2,2.23.46,5.43,2,10.88.09,16.31,0a67.47,67.47,0,0,0,8.39-.92,21.24,21.24,0,0,0,2.71-.84c1.37-.35,2.77-.58,4.13-1,2.46-.71,4.9-1.51,7.35-2.25,1.87-.56,3.76-1.07,5.62-1.64,1.53-.48,3.08-.92,4.55-1.54,3.14-1.32,6.25-2.72,9.35-4.12,12-5.42,22.77-12.5,30.52-23.46a14,14,0,0,1,1-1.17c0,1.44.08,2.54,0,3.63a21.09,21.09,0,0,0-.3,3.55c1.6-1.74,3.26-3.42,4.77-5.23,2.33-2.79,4.49-5.74,6.84-8.51,1.73-2,3.82-3.78,5.43-5.89a72.15,72.15,0,0,0,4-6.64,7.73,7.73,0,0,1,.66-.85c5.43-5.9,10.62-12.06,16.38-17.63s11.82-11.13,19-15.27a47.06,47.06,0,0,1,8.43-4.06,5.66,5.66,0,0,1,2.8.2c3.58.8,6.27,2.52,7.56,6.28a27.3,27.3,0,0,1,.55,17,63.78,63.78,0,0,1-7.66,16.12c-1.27,2-3.31,3.61-5,5.36-1.38,1.41-2.81,2.77-4.23,4.15a2,2,0,0,1-.56.43c-5.36,2.18-10.64,4.59-16.12,6.41-2.47.82-5.32.51-8,.63-2,.09-4.07,0-6.1.08-2.76.07-4.43,1.93-5.35,4.1a10.43,10.43,0,0,0,.53,10c1.37,2.19,1.91,4.9,4.24,6.51,3,2,5.87,3.55,9.74,3.65,4.78.12,9-1.6,13.46-2.62A50,50,0,0,0,720.58,254a4.27,4.27,0,0,0,1.24-1c2-3,5.38-4.47,7.81-7a5,5,0,0,0,.91-1.77c.85-2.32,1.09-5.18,2.61-6.89,3.64-4.08,7.65-8,13.71-8.27a5.57,5.57,0,0,0,4.48-2.42,10.61,10.61,0,0,1,1.89-1.65c6.9-5.48,13.85-10.89,20.69-16.44,2.36-1.91,4.3-4.37,6.73-6.17,4.45-3.29,8.73-7.08,14.9-6.82.92,0,2-.92,2.79-1.64,1.65-1.47,3.6-1.21,4.66.78a7.24,7.24,0,0,1,.52,6.22c-.69,1.84-1.5,3.65-2.09,5.52a43.94,43.94,0,0,0-1,4.52,6.29,6.29,0,0,1-.18,1.23c-2.4,5.66-4.79,11.33-7.27,17-1,2.16-2.6,4.06-2.12,6.68a2.18,2.18,0,0,1-.3.81c-1.07,2.11-2.3,4.15-3.2,6.33-2,4.8-4,9.61-5.65,14.52a39.32,39.32,0,0,0-1.83,13.92,15.53,15.53,0,0,1-.58,3.38c-1.81.59-3.26,1.05-4.7,1.54-2.12.71-3,.19-2.94-2.07a16,16,0,0,1,.55-3.51c1.21-5.17,1.57-10.22-1.19-15.11-.89-1.59-1.28-3.46-2.09-5.11a25.45,25.45,0,0,0-2.63-4.17,88.61,88.61,0,0,0-5.83-7,12.12,12.12,0,0,0-7.41-4.08c-1.17-.11-2.74.85-3.67,1.78-2.46,2.5-4.65,5.27-7,7.88a11.34,11.34,0,0,1-1.91,1.31c-6.18,4.54-6.13,6.29-3.43,12.14a21.58,21.58,0,0,0,3.41,5,6,6,0,0,0,2.83,1.28c1.17.33,2.19.78,1.68,2.17a1.94,1.94,0,0,1-2.28,1.52,1.56,1.56,0,0,1-.56-.2c-2.89-1.26-6-2.22-8.22-4.56-1.45-1.57-2.28-3.74-3.29-5.68-.86-1.65-1.68-2-3.06-.67-1.56,1.46-2.93,3.13-4.45,4.63a18.34,18.34,0,0,1-2.18,1.55c-.23.17-.56.33-.63.56-.91,2.87-3.53,4.13-5.58,5.9a5,5,0,0,1-2.14.66c-.35.08-.79-.14-1.07,0-1.15.6-2.34,1-3-.45a16.26,16.26,0,0,1-.78-3.38A1.46,1.46,0,0,1,707.43,266.54Zm89-63-.48-.25a8.07,8.07,0,0,1-2,1.37c-2.14.72-4.26,1.38-5.49,3.54-.21.38-.77.54-1.16.82-3.37,2.42-7.37,4-10,7.48-.17.23-.47.51-.71.51-1.9,0-2.79,1.53-4.07,2.49-4.33,3.26-8.69,6.48-13,9.72a3.86,3.86,0,0,0-.78.73c-.74,1-.67,1.51.43,2.42A119.62,119.62,0,0,1,769.8,242a23.7,23.7,0,0,1,5.39,8.94,13.42,13.42,0,0,0,1.9,2.82c6.85-16.95,13.43-33.46,19.35-50.21Z" transform="translate(-3.94 -13.15)"/><path class="cls-1" d="M514.34,131.53v15.81H432.42v-134h22.06V131.53Z" transform="translate(-3.94 -13.15)"/><path class="cls-1" d="M712.42,147.34h-26q.51-67.17,1-134.15H713C712.8,58,712.61,102.61,712.42,147.34Z" transform="translate(-3.94 -13.15)"/><path class="cls-1" d="M296.86,13.28H322.4q-.31,67-.63,134.05h-26C296.14,102.65,296.5,58.07,296.86,13.28Z" transform="translate(-3.94 -13.15)"/><path class="cls-1" d="M402.84,13.33V35.66H327.5V13.33Z" transform="translate(-3.94 -13.15)"/><path class="cls-1" d="M402.86,124.79v22.37H327.51V124.79Z" transform="translate(-3.94 -13.15)"/><path class="cls-1" d="M327.44,91.39V69h75.4V91.39Z" transform="translate(-3.94 -13.15)"/><path class="cls-1" d="M252.39,17.65h6.38v246h-6.38Z" transform="translate(-3.94 -13.15)"/><path class="cls-1" d="M937.79,210.57a33.51,33.51,0,0,1-2.5,4.88c-1.81,2.46-3.57,5.16-6,6.88-1.76,1.26-2.2,3.28-3.91,4.43a52.92,52.92,0,0,0-4.77,4.08,3.11,3.11,0,0,0-.28.23c-4.19,5.87-9.85,10.43-14.42,16a159.08,159.08,0,0,0-10,13.11c-1.41,2.12-1.52,4.21-2.33,6.26-.53,1.35-2.29,2.41-3.73,3.13-.92.46-3,.48-3.27,0-.65-1.07-1.06-2.93-.55-3.94,2.18-4.29,4-8.86,7.59-12.28.25-.25.62-.49.7-.8.87-3.46,3.92-5.34,5.78-8.08s3.7-5.58,6.59-7.57c1.43-1,2.36-2.69,3.63-4,3.59-3.61,7.18-7.22,10.86-10.72a42.3,42.3,0,0,0,8-9.83,7,7,0,0,1,1.64-1.57,11.78,11.78,0,0,0,2-1.73c.87-1.25,2.1-1.91,3.35-1.35C937,208,937.19,209.37,937.79,210.57Z" transform="translate(-3.94 -13.15)"/><path class="cls-1" d="M951.22,122.63h-33.1c1.4-4.25,2.73-8.39,4.16-12.48a1.74,1.74,0,0,1,1.37-.75q11.07-.06,22.14,0a1.53,1.53,0,0,1,1.22.66C948.44,114.16,949.78,118.28,951.22,122.63Z" transform="translate(-3.94 -13.15)"/><path class="cls-1" d="M610.08,107.18l4.38,13.22H581.35c1.39-4.23,2.74-8.41,4.17-12.56a1.39,1.39,0,0,1,1.09-.63C594.4,107.18,602.19,107.18,610.08,107.18Z" transform="translate(-3.94 -13.15)"/>
</svg>