<svg id="レイヤー_1" data-name="レイヤー 1" xmlns="http://www.w3.org/2000/svg" viewBox="0 0 1323 1437.45"><defs><style>.cls-1{fill:#006837;}</style></defs><path class="cls-1" d="M1070.48,465.11c-.75-52-.94-76.61-8-106.7-7.9-33.81-18.91-57.12-21.64-62.77-21-43.58-47.77-70.65-53.52-76.36a297.22,297.22,0,0,0-59.23-45,273.68,273.68,0,0,0-71.34-29.06Q824.37,88.38,791.93,31.55c-3.28,5.1-27.49,44.65-1.24,92.77a115.51,115.51,0,0,0,9.34,14.4h-.6c-24.61.62-59,6.1-128.69,47.08C568.19,246.14,438.79,354.33,463.47,408.62c3.74,8.25,15.63,25.34,31.88,40.8,2.11,2,22.46,21.18,38.73,28.25C567,492,609.22,467.85,725.41,402.35c71.33-40.22,107.29-60.13,121.86-50.22,12,8.17,9.14,29.16,3.41,71.14-4.17,30.54-7.53,53.38-26.84,68.74-14.78,11.75-32.05,14.07-39.21,14.95-116,14.24-214.71,6.09-215,6.07h0c-115,0-127.51-1.91-142.47-2-15.7-.57-35.85-.91-61.69-.9-78.78,0-118.75.23-146.91,9.41s-80.74,26.33-101.36,73.23c-14.56,33.11-6.12,65.08-1.14,79.5,2,7,5.15,17.53,9.17,30.17,25.33,79.71,40.18,98.53,31.83,122.57-4.1,11.8-15.25,29-50.11,43.93,61.62-4.53,82.91-21.89,91.11-36.61,20.63-37.07-32.74-73.68-29.61-162.15,1.66-47.06,17.61-70.58,28.47-82.64,19.86-22.07,48-34.2,51.13-30.88,3.38,3.61-27.19,20.77-46.57,60.17,0,0-23.76,49.42-12.53,106.7,5.6,28.59,13.41,29.49,27.33,76.37,6.6,22.23,6.47,27.49,15.95,73.23,22.68,109.49,28.6,104.51,25,124.48-6.89,38.81-28.36,71.13-12,87.4,4.41,4.38,8.48,5.74,38.13,7.27,41.88,2.17,83.93,1.38,125.86,2.92,14.56.53,18.21-4.39,18-16.89-.63-43-.78-85.93,0-128.89.35-18.89,1.68-38.06,5.57-56.57C449.53,814.09,538.42,730.72,649.46,735c89.11,3.45,178.72,1.42,267.86-2.77a166.85,166.85,0,0,0,64-15.76c63.45-30.21,78.91-104.93,85.23-132.56C1071.86,560.62,1071.4,528.79,1070.48,465.11Zm-337.1-158c-17,0-30.75-12.65-30.75-28.25s13.77-28.24,30.75-28.24,30.75,12.64,30.75,28.24S750.36,307.15,733.38,307.15Z" transform="translate(-107 -31.55)"/><path class="cls-1" d="M466.52,1035.43c.75,52,.94,76.62,8,106.71,7.9,33.8,18.91,57.12,21.64,62.76,21,43.59,47.77,70.66,53.52,76.37a296.94,296.94,0,0,0,59.23,45,273.58,273.58,0,0,0,71.34,29.07L745.07,1469c3.28-5.11,27.49-44.66,1.24-92.77a114.06,114.06,0,0,0-9.34-14.4h.6c24.61-.62,59-6.1,128.69-47.07,102.55-60.34,232-168.54,207.27-222.83-3.74-8.24-15.63-25.34-31.88-40.8-2.11-2-22.46-21.18-38.73-28.24-32.93-14.3-75.14,9.81-191.33,75.32-71.33,40.22-107.29,60.13-121.86,50.21-12-8.17-9.14-29.16-3.41-71.13,4.17-30.54,7.53-53.39,26.84-68.74,14.78-11.75,32.05-14.07,39.21-14.95,116-14.25,214.71-6.09,215-6.07h0c115,0,127.51,1.91,142.47,2,15.7.57,35.85.91,61.69.9,78.78,0,118.75-.23,146.91-9.41s80.74-26.33,101.36-73.23c14.56-33.12,6.12-65.09,1.14-79.51-2-7-5.15-17.53-9.17-30.16-25.33-79.71-40.18-98.54-31.83-122.57,4.1-11.8,15.25-29,50.11-43.94-61.62,4.54-82.91,21.89-91.11,36.62-20.63,37.06,32.74,73.68,29.61,162.14C1366.84,877.46,1350.89,901,1340,913c-19.86,22.07-48,34.2-51.13,30.88-3.38-3.61,27.19-20.77,46.57-60.17,0,0,23.76-49.42,12.53-106.71-5.6-28.58-13.41-29.48-27.33-76.36-6.6-22.23-6.47-27.49-16-73.23-22.68-109.5-28.6-104.52-25-124.49,6.89-38.81,28.36-71.13,12-87.4-4.41-4.38-8.48-5.74-38.13-7.27-41.88-2.16-83.93-1.38-125.86-2.91-14.56-.53-18.21,4.39-18,16.88.63,43,.78,85.94,0,128.89-.35,18.9-1.68,38.06-5.57,56.57-16.56,78.73-105.45,162.11-216.49,157.81-89.11-3.44-178.72-1.41-267.86,2.78a166.66,166.66,0,0,0-64,15.75C492.24,814.27,476.78,889,470.46,916.63,465.14,939.92,465.6,971.76,466.52,1035.43Zm337.1,158c17,0,30.75,12.64,30.75,28.24s-13.77,28.25-30.75,28.25-30.75-12.65-30.75-28.25S786.64,1193.4,803.62,1193.4Z" transform="translate(-107 -31.55)"/></svg>